<?xml version="1.0" encoding="UTF-8" standalone="no"?>
<svg
   xmlns:dc="http://purl.org/dc/elements/1.1/"
   xmlns:cc="http://creativecommons.org/ns#"
   xmlns:rdf="http://www.w3.org/1999/02/22-rdf-syntax-ns#"
   xmlns:svg="http://www.w3.org/2000/svg"
   xmlns="http://www.w3.org/2000/svg"
   xmlns:xlink="http://www.w3.org/1999/xlink"
   xmlns:sodipodi="http://sodipodi.sourceforge.net/DTD/sodipodi-0.dtd"
   xmlns:inkscape="http://www.inkscape.org/namespaces/inkscape"
   viewBox="0 0 915 915"
   height="915"
   width="915"
   id="svg815"
   version="1.1"
   sodipodi:docname="ElectrarNoTxtWhite.svg"
   inkscape:version="0.92.3 (2405546, 2018-03-11)"
   inkscape:export-filename="/home/leandro/Documents/Electrar/img/logos/logo1.svg.png"
   inkscape:export-xdpi="96"
   inkscape:export-ydpi="96">
  <sodipodi:namedview
     pagecolor="#ffffff"
     bordercolor="#666666"
     borderopacity="1"
     objecttolerance="10"
     gridtolerance="10"
     guidetolerance="10"
     inkscape:pageopacity="0"
     inkscape:pageshadow="2"
     inkscape:window-width="1920"
     inkscape:window-height="1053"
     id="namedview6"
     showgrid="false"
     inkscape:zoom="0.35355339"
     inkscape:cx="251.59717"
     inkscape:cy="429.36978"
     inkscape:window-x="0"
     inkscape:window-y="0"
     inkscape:window-maximized="1"
     inkscape:current-layer="svg815" />
  <metadata
     id="metadata821">
    <rdf:RDF>
      <cc:Work
         rdf:about="">
        <dc:format>image/svg+xml</dc:format>
        <dc:type
           rdf:resource="http://purl.org/dc/dcmitype/StillImage" />
        <dc:title />
      </cc:Work>
    </rdf:RDF>
  </metadata>
  <defs
     id="defs819">
    <linearGradient
       id="linearGradient1427"
       inkscape:collect="always">
      <stop
         id="stop1423"
         offset="0"
         style="stop-color:#b3b3b3;stop-opacity:1" />
      <stop
         id="stop1425"
         offset="1"
         style="stop-color:#e6e6e6;stop-opacity:0;" />
    </linearGradient>
    <linearGradient
       inkscape:collect="always"
       id="linearGradient1397">
      <stop
         style="stop-color:#e6e6e6;stop-opacity:1;"
         offset="0"
         id="stop1393" />
      <stop
         style="stop-color:#e6e6e6;stop-opacity:0;"
         offset="1"
         id="stop1395" />
    </linearGradient>
    <linearGradient
       inkscape:collect="always"
       xlink:href="#linearGradient1427"
       id="linearGradient1399"
       x1="653.36664"
       y1="810.34821"
       x2="-84.852814"
       y2="-224.85614"
       gradientUnits="userSpaceOnUse" />
    <linearGradient
       inkscape:collect="always"
       xlink:href="#linearGradient1397"
       id="linearGradient1401"
       x1="283.36127"
       y1="102.48509"
       x2="424.26407"
       y2="844.28931"
       gradientUnits="userSpaceOnUse" />
    <linearGradient
       inkscape:collect="always"
       xlink:href="#linearGradient1397"
       id="linearGradient1403"
       x1="283.36127"
       y1="102.48509"
       x2="424.26407"
       y2="844.28931"
       gradientUnits="userSpaceOnUse" />
    <linearGradient
       inkscape:collect="always"
       xlink:href="#linearGradient1397"
       id="linearGradient1405"
       x1="283.36127"
       y1="102.48509"
       x2="424.26407"
       y2="844.28931"
       gradientUnits="userSpaceOnUse" />
    <linearGradient
       inkscape:collect="always"
       xlink:href="#linearGradient1397"
       id="linearGradient1407"
       x1="283.36127"
       y1="102.48509"
       x2="424.26407"
       y2="844.28931"
       gradientUnits="userSpaceOnUse" />
    <linearGradient
       inkscape:collect="always"
       xlink:href="#linearGradient1397"
       id="linearGradient1409"
       x1="283.36127"
       y1="102.48509"
       x2="424.26407"
       y2="844.28931"
       gradientUnits="userSpaceOnUse" />
    <linearGradient
       inkscape:collect="always"
       xlink:href="#linearGradient1397"
       id="linearGradient1411"
       x1="283.36127"
       y1="102.48509"
       x2="424.26407"
       y2="844.28931"
       gradientUnits="userSpaceOnUse" />
    <linearGradient
       inkscape:collect="always"
       xlink:href="#linearGradient1397"
       id="linearGradient1413"
       x1="283.36127"
       y1="102.48509"
       x2="424.26407"
       y2="844.28931"
       gradientUnits="userSpaceOnUse" />
    <linearGradient
       inkscape:collect="always"
       xlink:href="#linearGradient1397"
       id="linearGradient1415"
       x1="283.36127"
       y1="102.48509"
       x2="424.26407"
       y2="844.28931"
       gradientUnits="userSpaceOnUse" />
    <linearGradient
       inkscape:collect="always"
       xlink:href="#linearGradient1397"
       id="linearGradient1417"
       x1="283.36127"
       y1="102.48509"
       x2="424.26407"
       y2="844.28931"
       gradientUnits="userSpaceOnUse" />
    <linearGradient
       inkscape:collect="always"
       xlink:href="#linearGradient1397"
       id="linearGradient1419"
       x1="283.36127"
       y1="102.48509"
       x2="424.26407"
       y2="844.28931"
       gradientUnits="userSpaceOnUse" />
    <linearGradient
       inkscape:collect="always"
       xlink:href="#linearGradient1397"
       id="linearGradient1421"
       x1="283.36127"
       y1="102.48509"
       x2="424.26407"
       y2="844.28931"
       gradientUnits="userSpaceOnUse" />
  </defs>
  <path
     style="fill:#e6e6e6;stroke-width:0.02209709"
     d=""
     id="path840"
     inkscape:connector-curvature="0" />
  <path
     style="fill:#e6e6e6;stroke-width:0.04419417"
     d=""
     id="path850"
     inkscape:connector-curvature="0" />
  <path
     style="fill:#e6e6e6;stroke-width:0.04419417"
     d=""
     id="path852"
     inkscape:connector-curvature="0" />
  <path
     style="fill:#e6e6e6;stroke-width:0.03125"
     d=""
     id="path878"
     inkscape:connector-curvature="0" />
  <path
     style="fill:#e6e6e6;stroke-width:0.03125"
     d=""
     id="path880"
     inkscape:connector-curvature="0" />
  <path
     style="fill:#e6e6e6;stroke-width:0.04419417"
     d=""
     id="path914"
     inkscape:connector-curvature="0" />
  <path
     style="fill:#e6e6e6;stroke-width:0.00390625"
     d=""
     id="path956"
     inkscape:connector-curvature="0" />
  <path
     style="fill:#e6e6e6;stroke-width:0.00390625"
     d=""
     id="path958"
     inkscape:connector-curvature="0" />
  <path
     style="fill:#e6e6e6;stroke-width:0.04419417"
     d=""
     id="path978"
     inkscape:connector-curvature="0" />
  <path
     style="fill:#e6e6e6;stroke-width:0.125"
     d=""
     id="path1002"
     inkscape:connector-curvature="0" />
  <path
     style="fill:#e6e6e6;stroke-width:0.125"
     d=""
     id="path1004"
     inkscape:connector-curvature="0" />
  <path
     style="fill:#e6e6e6;stroke-width:0.125"
     d=""
     id="path1006"
     inkscape:connector-curvature="0" />
  <path
     style="fill:#e6e6e6;stroke-width:0.02209709"
     d=""
     id="path1012"
     inkscape:connector-curvature="0" />
  <path
     d="M 283.36127,102.48509 519.07931,88.395448 C 394.5762,84.225929 320.71555,84.225929 297.4736,86.723278 l -34.85704,7.468497 c -4.15815,4.135146 3.31048,6.632415 20.74471,8.293315"
     style="fill:url(#linearGradient1421);fill-opacity:1;fill-rule:evenodd;stroke:none;stroke-width:1.14548492"
     id="path14"
     inkscape:connector-curvature="0" />
  <path
     d="m 231.06994,161.43153 387.60907,-8.32769 -375.14624,-13.27618 c -49.81714,-3.31035 -77.2056,0 -81.34081,9.12975 -7.48001,12.47412 16.59802,16.60956 68.87798,12.47412"
     style="fill:url(#linearGradient1419);fill-opacity:1;fill-rule:evenodd;stroke:none;stroke-width:1.14548492"
     id="path16"
     inkscape:connector-curvature="0" />
  <path
     d="M 94.127314,236.12878 679.28673,215.37236 152.21475,208.74031 c -39.82848,0 -60.596146,4.13508 -60.596146,12.43974 l 2.50871,14.94873"
     style="fill:url(#linearGradient1417);fill-opacity:1;fill-rule:evenodd;stroke:none;stroke-width:1.14548492"
     id="path18"
     inkscape:connector-curvature="0" />
  <path
     d="M 133.14252,314.1247 720.76443,287.58403 84.150077,277.5951 c -16.598085,1.695 -25.704642,5.81912 -27.377075,14.13539 -2.462895,18.24769 22.417129,24.8915 76.369518,22.39421"
     style="fill:url(#linearGradient1415);fill-opacity:1;fill-rule:evenodd;stroke:none;stroke-width:1.14548492"
     id="path20"
     inkscape:connector-curvature="0" />
  <path
     d="m 48.468177,345.67133 695.549663,17.43436 -643.24673,18.25908 c -41.523935,0 -63.081925,-6.65552 -66.426681,-22.41727 -0.801745,-6.65517 4.169613,-12.43981 14.123748,-13.27617"
     style="fill:url(#linearGradient1413);fill-opacity:1;fill-rule:evenodd;stroke:none;stroke-width:1.14548492"
     id="path22"
     inkscape:connector-curvature="0" />
  <path
     d="m 42.672095,451.9149 219.944465,-2.48395 30.69897,-34.86838 H 73.37106 c -33.207575,0 -48.144743,7.45682 -43.986566,22.40552 0.801632,8.32771 4.959935,14.12368 13.287601,14.9485"
     style="fill:url(#linearGradient1411);fill-opacity:1;fill-rule:evenodd;stroke:none;stroke-width:1.14548492"
     id="path24"
     inkscape:connector-curvature="0" />
  <path
     d="m 91.618604,525.78741 139.451336,-9.96579 18.259,-31.52364 -163.495008,2.48396 c -31.523687,0 -47.31989,6.63241 -47.31989,19.07217 0,9.96581 4.158053,15.78487 11.603712,16.62104 l 41.50085,3.31059"
     style="fill:url(#linearGradient1409);fill-opacity:1;fill-rule:evenodd;stroke:none;stroke-width:1.14548492"
     id="path26"
     inkscape:connector-curvature="0" />
  <path
     d="m 113.211,592.19098 354.41297,-14.11219 -24.90286,-24.8799 -341.95,2.4743 -35.681865,4.1351 c -4.181053,3.31035 -5.84207,8.30467 -4.181053,15.77322 2.508611,14.96003 20.756143,20.75636 52.302808,16.60947"
     style="fill:url(#linearGradient1407);fill-opacity:1;fill-rule:evenodd;stroke:none;stroke-width:1.14548492"
     id="path28"
     inkscape:connector-curvature="0" />
  <path
     d="m 514.94389,636.1891 -352.75193,-2.5099 c -43.18475,0 -62.268546,4.98289 -61.42085,17.42291 4.14663,15.78489 28.21322,19.94271 73.86079,15.78489 l 361.87002,-8.30494 -21.55803,-22.39429"
     style="fill:url(#linearGradient1405);fill-opacity:1;fill-rule:evenodd;stroke:none;stroke-width:1.14548492"
     id="path30"
     inkscape:connector-curvature="0" />
  <path
     d="m 558.91913,708.40047 -379.30442,-3.33348 c -8.29329,0 -12.43993,3.33348 -12.43993,9.95452 0,12.46274 26.54085,18.25907 78.84374,14.94836 l 350.24325,-12.45142 -37.34264,-9.11798"
     style="fill:url(#linearGradient1403);fill-opacity:1;fill-rule:evenodd;stroke:none;stroke-width:1.14548492"
     id="path32"
     inkscape:connector-curvature="0" />
  <path
     d="m 319.86788,781.4364 207.516,-6.65511 -217.47027,-8.30457 c -29.03802,-4.13545 -43.98657,-1.66245 -43.98657,8.30457 l 53.94084,6.65511"
     style="fill:url(#linearGradient1401);fill-opacity:1;fill-rule:evenodd;stroke:none;stroke-width:1.14548492"
     id="path34"
     inkscape:connector-curvature="0" />
  <path
     inkscape:connector-curvature="0"
     d="m 761.6345,695.49386 c 26.46487,0 51.32872,-10.30231 69.99947,-28.99582 C 850.34275,647.814 894.3348,527.14512 894.3348,500.67833 l -64.11367,95.80487 c 0,18.33234 -7.13232,35.55218 -20.09868,48.50136 -12.93773,12.953 -30.15571,20.0855 -48.48795,20.0855 -37.80926,0 -68.56778,-30.76803 -68.56778,-68.58686 v -88.84898 c 0.94313,-0.16352 1.89199,-0.31752 2.82372,-0.51156 29.98465,-6.18169 54.21531,-27.46128 64.52143,-55.67747 h 28.74098 c 22.101,0 42.5326,-10.03228 56.05591,-27.5279 13.46247,-17.41382 18.01284,-39.59661 12.47947,-60.85719 C 824.87799,236.97037 710.55285,148.90665 579.67135,148.90665 c -130.8834,0 -245.2086,88.06372 -278.02072,214.15345 -5.53333,21.26058 -0.98497,43.44143 12.47949,60.85719 13.5234,17.49372 33.95492,27.5279 56.05592,27.5279 h 28.76767 c 10.76243,29.27721 36.65693,50.81921 67.32034,56.18903 v 88.84898 c 0,37.82064 -30.75851,68.58686 -68.58482,68.58686 -37.80925,0 -78.26923,-162.82768 -78.26923,-200.64644 l -20.72427,87.37282 c 0,54.59557 44.40738,143.69742 99.01061,143.69742 54.58417,0 98.99159,-44.41498 98.99159,-99.01066 v -87.54457 h 35.08248 v 232.87559 c 0,37.80921 -30.76801,68.56967 -68.58676,68.56967 -18.31895,0 -35.53313,-7.13252 -48.48038,-20.1007 -12.95488,-12.93399 -20.08546,-30.14625 -20.08546,-48.46717 h -30.42383 c 0,26.45357 10.30227,51.31179 28.99771,69.98247 18.68214,18.70879 43.53842,29.01112 69.99388,29.01112 54.59557,0 99.01058,-44.40742 99.01058,-98.99359 V 508.94056 h 34.9304 v 232.87546 c 0,54.58425 44.415,98.99359 99.0106,98.99359 26.45353,0 51.3098,-10.30233 69.98056,-28.99584 18.70869,-18.68403 29.01103,-43.54226 29.01103,-69.99775 h -30.42387 c 0,18.32092 -7.13254,35.53508 -20.10057,48.48235 -12.93395,12.9548 -30.14629,20.08552 -48.46524,20.08552 -37.82067,0 -68.5868,-30.76046 -68.5868,-68.56967 V 508.93863 h 35.08255 v 87.54457 c -0.002,54.59568 44.40547,99.01066 98.98969,99.01066 z M 695.95507,421.01942 c -6.00297,-8.20303 -9.26594,-18.06793 -9.26594,-28.35881 0,-26.51439 21.57241,-48.0868 48.0887,-48.0868 26.50679,0 48.07157,21.57241 48.07157,48.0868 0,10.28518 -3.25725,20.15199 -9.2546,28.35881 z M 338.19919,405.30933 c -7.6573,-9.90678 -10.24713,-22.51174 -7.10398,-34.58622 29.32289,-112.688 131.54321,-191.39261 248.57614,-191.39261 117.03293,0 219.25316,78.70461 248.57798,191.39072 3.14137,12.07447 0.55145,24.67946 -7.10583,34.5862 -3.14126,4.06158 -6.94047,7.40441 -11.18448,9.95811 2.1772,-7.258 3.31614,-14.85825 3.31614,-22.60682 0,-43.29124 -353.03424,-32.33159 -396.31597,-32.33159 -43.29314,0 239.30799,-10.95965 239.30799,32.33159 0,9.825 1.82732,19.41042 5.29375,28.35884 H 370.18604 c -12.60685,0.002 -24.2668,-5.72349 -31.98685,-15.70822 z m 94.4261,46.13397 h 294.11306 c -8.11939,13.11075 -21.35188,22.65622 -37.01825,25.88685 -3.76876,0.78531 -7.68392,1.18274 -11.63522,1.18274 H 481.26162 c -20.15011,0.002 -38.40442,-10.67877 -48.63633,-27.06959 z"
     id="path2"
     style="fill:url(#linearGradient1399);fill-opacity:1;stroke-width:1.90149033"
     sodipodi:nodetypes="sccccsscccsccsccsccssccssccssccccssccssccccsscccscsssccccscccsssccccccscc" />
  <g
     transform="matrix(0.48569656,0,0,0.48569656,677.90495,242.05873)"
     id="g186"
     style="fill:#e6e6e6;fill-opacity:1">
    <g
       transform="matrix(2.5334491,0,0,2.5334491,-832.50346,112.05422)"
       id="g6"
       style="fill:#e6e6e6" />
  </g>
</svg>
